<svg class="map" width="1335" height="625" viewBox="0 0 1335 625" xmlns="http://www.w3.org/2000/svg" xmlns:xlink="http://www.w3.org/1999/xlink"><defs><path d="M410.135 1261.2v-6.292h-75.883V983.114l72.361-.768V597.023l-68.84-210.117-130.728-180.198L28.917 78.019V1.04h233.738V8.1h8.824v7.06H375.61v21.175h7.07v218.85h81.26v221.39h-19.497v66.298h45.12v-19.411h104.905v731.446h-38.833v21.183l-.001 1.766h-14.886v-1.766H425v1.759h-14.89v-16.65h.025z" id="game-of-meetio-__b"/><filter x="-8%" y="-3.5%" width="115.9%" height="107%" filterUnits="objectBoundingBox" id="game-of-meetio-__a"><feOffset in="SourceAlpha" result="shadowOffsetOuter1"/><feGaussianBlur stdDeviation="15" in="shadowOffsetOuter1" result="shadowBlurOuter1"/><feColorMatrix values="0 0 0 0 0.2 0 0 0 0 0.2 0 0 0 0 0.2 0 0 0 1 0" in="shadowBlurOuter1"/></filter><path id="game-of-meetio-__d" d="M372.676 828.301V717.398h134.783v123.394H374.535v-12.49z"/><filter x="-16.7%" y="-18.2%" width="133.4%" height="136.5%" filterUnits="objectBoundingBox" id="game-of-meetio-__c"><feOffset in="SourceAlpha" result="shadowOffsetOuter1"/><feGaussianBlur stdDeviation="7.5" in="shadowOffsetOuter1" result="shadowBlurOuter1"/><feColorMatrix values="0 0 0 0 0.2 0 0 0 0 0.2 0 0 0 0 0.2 0 0 0 1 0" in="shadowBlurOuter1"/></filter><path id="game-of-meetio-__f" d="M371.676 964.085V853.18h137.007v123.394H378.78v-12.49z"/><filter x="-16.4%" y="-18.2%" width="132.8%" height="136.5%" filterUnits="objectBoundingBox" id="game-of-meetio-__e"><feOffset in="SourceAlpha" result="shadowOffsetOuter1"/><feGaussianBlur stdDeviation="7.5" in="shadowOffsetOuter1" result="shadowBlurOuter1"/><feColorMatrix values="0 0 0 0 0.2 0 0 0 0 0.2 0 0 0 0 0.2 0 0 0 1 0" in="shadowBlurOuter1"/></filter><path id="game-of-meetio-__h" d="M16.953 213.037v-226.68h12.355v-1.764h175.496V30.35l8.64 6.782L85.028 213.037z"/><filter x="-7.6%" y="-6.6%" width="115.3%" height="113.1%" filterUnits="objectBoundingBox" id="game-of-meetio-__g"><feOffset in="SourceAlpha" result="shadowOffsetOuter1"/><feGaussianBlur stdDeviation="5" in="shadowOffsetOuter1" result="shadowBlurOuter1"/><feColorMatrix values="0 0 0 0 0 0 0 0 0 0 0 0 0 0 0 0 0 0 1 0" in="shadowBlurOuter1"/></filter><path id="game-of-meetio-__j" d="M473.098 604.062v-92.544h62.54v92.544z"/><filter x="-24%" y="-16.2%" width="148%" height="132.4%" filterUnits="objectBoundingBox" id="game-of-meetio-__i"><feOffset in="SourceAlpha" result="shadowOffsetOuter1"/><feGaussianBlur stdDeviation="5" in="shadowOffsetOuter1" result="shadowBlurOuter1"/><feColorMatrix values="0 0 0 0 0 0 0 0 0 0 0 0 0 0 0 0 0 0 1 0" in="shadowBlurOuter1"/></filter><path id="game-of-meetio-__l" d="M249.834 101.938V-1.194h71.36v103.132z"/><filter x="-21%" y="-14.5%" width="142%" height="129.1%" filterUnits="objectBoundingBox" id="game-of-meetio-__k"><feOffset in="SourceAlpha" result="shadowOffsetOuter1"/><feGaussianBlur stdDeviation="5" in="shadowOffsetOuter1" result="shadowBlurOuter1"/><feColorMatrix values="0 0 0 0 0 0 0 0 0 0 0 0 0 0 0 0 0 0 1 0" in="shadowBlurOuter1"/></filter><path d="M129.74 325.03L.9 501.52" id="game-of-meetio-__m"/></defs><g fill="none" fill-rule="evenodd"><g transform="rotate(-90 326 298)"><use fill="#000" filter="url(#game-of-meetio-__a)" xlink:href="#game-of-meetio-__b"/><use fill="#EEE" xlink:href="#game-of-meetio-__b"/></g><g fill="#000"><use filter="url(#game-of-meetio-__c)" xlink:href="#game-of-meetio-__d" transform="translate(371.027 -630.162)"/><use filter="url(#game-of-meetio-__e)" xlink:href="#game-of-meetio-__f" transform="matrix(-1 0 0 1 1387.057 -766.057)"/><use filter="url(#game-of-meetio-__g)" xlink:href="#game-of-meetio-__h" transform="translate(15.617 374.987)"/><use filter="url(#game-of-meetio-__i)" xlink:href="#game-of-meetio-__j" transform="translate(85.422 -473.158)"/><use filter="url(#game-of-meetio-__k)" xlink:href="#game-of-meetio-__l" transform="translate(-203.142 253.114)"/></g><g fill="#428DCC"><path data-address="winterfell@getmeetio.com" d="M743.703 198.14V87.234h134.783V210.63H745.562v-12.49z"/><path data-address="casterlyrock@getmeetio.com" d="M1015.382 198.027V87.124H878.375v123.394h129.901v-12.49z"/><path data-address="thewall@getmeetio.com" d="M32.569 588.024v-226.68h12.355v-1.764H220.42v45.757l8.639 6.782-128.414 175.905z"/><path data-address="meereen@getmeetio.com" d="M558.52 130.904V38.36h62.54v92.544z"/><path data-address="kingslanding@getmeetio.com" d="M46.692 355.051V251.92h71.36v103.131z"/></g><path d="M1288.707 214.358h17.649-17.65zm0-15.885v15.885-15.885zm17.649 15.885v-15.885h-17.65v15.885h17.65zm-17.65-130.606h17.65-17.65zm0-15.884v15.884-15.884zm17.65 15.884V67.868h-17.65v15.884h17.65zM1008.08 214.358h17.65-17.65zm0-15.885v15.885-15.885zm17.65 15.885v-15.885h-17.65v15.885h17.65zm-17.65-130.606h17.65-17.65zm0-15.884v15.884-15.884zm17.65 15.884V67.868h-17.65v15.884h17.65zm-296.51 0h15.884-15.884zm0-15.884v15.884-15.884zm15.884 15.884V67.868h-15.884v15.884h15.884zM1015.141 87.282v111.191h3.53V87.282M729.22 214.358h15.885-15.884zm0-15.885v15.885-15.885zm15.885 15.885v-15.885h-15.884v15.885h15.884zM570.376 179.059h-65.302 65.302zm-70.597 5.295h75.892-75.892zm75.892-52.949h-17.65v3.53h12.355m-65.302 44.124v-19.415 19.415zm-5.295-14.12v19.415-19.415zm5.291-5.295H288.26v5.295h216.81v-5.295z" stroke="#000"/><path d="M628.62 134.935V37.864h-7.06v97.071h7.06zm-70.598 0V37.864h-7.06v97.071h7.06zM32.07 588.525V360.847h-3.53v227.678z" stroke="#000"/><path d="M42.66 595.584v-7.06H28.54v7.06h14.12zm58.243-7.06h-28.24v7.06h33.534l-5.294-7.06z" stroke="#000"/><path d="M42.66 588.525v7.06-7.06zm30.004 7.06v-7.06h-1.765v7.06h1.765zm-1.765 0l-3.53 14.119-10.59 10.59-14.12 3.53m0-28.24v28.24-28.24zm3.53-240.031V251.42v104.132zM42.66 247.89v104.132h1.766v5.295m86.482-67.068v-3.53h-1.765v3.53h1.765zm21.179 0v-3.53h-1.765v3.53h1.765zm-1.765 0l-1.765 10.59-7.06 7.06-10.59 1.764m0-19.414v19.414-19.414zm107.662-44.124v-5.294h-14.12m-31.713 5.294h45.833-45.833zm89.956-5.294h-7.06v5.294h12.355M118.552 355.553H46.189h72.363zm-74.127 1.765v1.765h176.493m0-3.53H160.91h60.008zm-61.772 0h-37.064 37.064zm65.302 1.765v-21.18h-3.53v19.415m0 12.354h3.53v-10.59m-3.53 1.766v8.824-8.824zm3.53 44.123v-7.06h-3.53v8.825l3.53-1.765zM189.15 290.25v-3.53 3.53zm-37.064 0h14.12v-3.53h-10.59l-3.53 3.53zm0 0v-3.53 3.53zm-30.004 0h7.06v-3.53h-7.06v3.53zm67.068 0h7.06v-3.53h-3.53l.19-40.218m-3.72 4.92v38.828-38.829zm-21.18 38.828v-3.53h-1.765v3.53h1.765zm21.18 0v-3.53h-1.765v3.53h1.765zm-1.765 0l-3.53 10.59-7.06 7.06-8.825 1.764m0-19.414v19.414-19.414zm52.948 114.72l8.825 7.06-8.825-7.06zm10.59 5.296l-7.06-7.06 7.06 7.06zm-7.06-14.12v-1.765h-3.53v1.765h3.53zm0-26.474v-1.765h-3.53v1.765h3.53z" stroke="#000"/><path d="M224.448 369.672l12.355 3.53 10.59 8.825 3.53 12.354m-26.475 0h26.474-26.474zm51.184-148.255v-5.294h-1.765v5.294h1.765zm-35.3 0v-5.294h-1.764v5.294h1.765zm0-5.294l3.53-12.355 7.06-10.59 10.59-7.06 12.355-3.53m0 33.535v-33.534 33.534zm-210.028 10.59v-3.53h-21.18m3.53 3.53h17.65-17.65zm75.893-10.59H63.839v10.59h54.713m33.534-10.59h-30.004 30.004zm-30.004 10.59h30.004-30.004zm70.597-10.59h-40.593 40.593zm-37.063 10.59h33.534-33.534zm68.832-10.59H192.68h31.77zM621.56 134.935v-3.53h-8.825v3.53h8.825zm-37.064 0v-3.53h-8.825v3.53h8.825zM197.974 359.083h-5.295m-1.765 0h-7.06m-1.764 0h-5.295m-3.53 0h-5.295m-3.53 0h-5.294m-1.765 0h-7.06m-1.765 0h-5.295m-3.53 0h-5.295m-3.53 0h-5.294m-3.53 0h-5.295m-1.765 0h-5.295m-3.53 0h-5.294m-3.53 0h-5.295m-3.53 0h-5.295m-1.765 0h-7.06m-1.764 0h-5.295m-3.53 0h-5.295m-3.53 0H49.72m-1.765 0h-3.53v1.764H39.13m-1.765 0H32.07v3.53m0 1.765v5.295m0 3.53v5.295m0 3.53v5.294m0 3.53v5.295m0 1.765v7.06m0 1.765v5.295m0 3.53v5.294m0 3.53v5.295m0 1.765v7.06m0 1.765v5.294m0 3.53v5.295m0 3.53v5.295m0 1.765v7.06m0 1.764v5.295m0 3.53v5.295m0 3.53v5.295m0 3.53v5.294m0 1.765v7.06m0 1.765v5.295m0 3.53v5.295m0 3.53v5.294m0 1.765v7.06m0 1.765v5.295m0 3.53v5.294m0 3.53v5.295m0 1.765v7.06m0 1.765v3.53m90.012-232.972h3.53m3.53 0h5.294m3.53 0h5.295m1.765 0h7.06m1.765 0h5.295v-3.53m0-3.53v-5.295m0-3.53v-3.53h1.764v3.53m0 3.53v5.295m0 3.53v3.53h3.53m3.53 0h5.295m3.53 0h5.295m1.765 0h7.06m1.764 0h5.295m3.53 0h5.295M584.496 134.935l3.53 14.12 10.59 8.824 12.354 3.53m0-26.474v26.474-26.474zM575.67 179.06h-5.295 5.295zm0 5.295v-5.295 5.295zm-5.295-49.419v7.06h5.295v-7.06h-5.295zm5.295 44.124v-1.765h-5.295v1.765h5.295zm0-35.299v-1.765h-5.295v1.765h5.295zm-5.295 0v33.674M625.09 32.57v-3.53h-68.832v3.53h68.832zM122.082 350.258v-1.765h-3.53v1.765h3.53zm0-26.474v-1.765h-3.53v1.765h3.53zm0 0l12.354 3.53 8.825 8.824 3.53 12.355m-24.71 0h24.71-24.71zm-3.529-26.474h3.53v-31.77m-3.53 0v31.77-31.77zm3.53 65.304v-5.295h-3.53v5.295h3.53zm30.004-104.132v38.829-38.829zm3.53 35.299v-35.299 35.299z" stroke="#000"/><path d="M160.91 355.553v-19.415h-1.764v19.415h1.764zM118.552 251.42v38.829-38.829zm3.53 35.299v-35.299 35.299zm165.904-40.454v-86.713h-5.295v81.167M134.436 542.636l-19.414 26.474 19.414-26.474zM625.09 217.887v-7.06 7.06zm68.833 0v-7.06h-33.534v7.06h33.534zm67.068 0v-7.06h-15.885v3.53h-15.884v-3.53h-1.765v7.06h33.534zm67.067 0v-7.06h-33.533v7.06h33.533zm67.068 0v-7.06h-33.534v7.06h33.534zm67.068 0v-7.06h-33.534v7.06h33.534zm33.534-7.06v7.06h14.12m3.529-3.53h-5.295v-3.53h-12.354m-301.805 7.06h33.534-33.534zm33.534-7.06h-33.534 33.534zm33.534 7.06h33.534-33.534zm100.601-7.06h-33.534 33.534zm-33.534 7.06h33.534-33.534zm100.602-7.06h-33.534 33.534zm-33.534 7.06h33.534-33.534zm100.602-7.06h-33.534 33.534zm-33.534 7.06h33.534-33.534zm-167.67-7.06H760.99h33.534zm0 0H760.99h33.534zm-169.434 7.06h35.3-35.3zm35.3-7.06h-35.3 35.3z" stroke="#000"/><path d="M727.456 217.887v-7.06h-1.765v7.06h1.765zm-33.534 0v-7.06 7.06zm31.769-3.53h-31.769 31.769zm0 0h-31.769 31.769zm0 3.53h-31.769 31.769zm0-7.06h-31.769 31.769zm-65.303 7.06v-7.06h-1.765v7.06h1.765zm-33.534 0v-7.06h-1.765v7.06h1.765zm31.77-3.53h-31.77 31.77zm0 0h-31.77 31.77zm0 3.53h-31.77 31.77zm0-7.06h-31.77 31.77zm135.9 7.06v-7.06h-1.765v7.06h1.765zm-31.77 0v-7.06h-1.764v7.06h1.765zm30.005-3.53h-30.004 30.004zm0 0h-30.004 30.004zm0 3.53h-30.004 30.004zm0-7.06h-30.004 30.004zm68.832 7.06v-7.06h-1.765v7.06h1.765zm-31.769 0v-7.06h-1.765v7.06h1.765zm30.004-3.53h-30.004 30.004zm0 0h-30.004 30.004zm0 3.53h-30.004 30.004zm0-7.06h-30.004 30.004zm135.9 7.06v-7.06h-1.764v7.06h1.765zm-31.768 0v-7.06h-1.765v7.06h1.765z" stroke="#000"/><g stroke="#000"><path d="M928.659 217.887v-7.06h-1.765v7.06zM896.89 217.887v-7.06h-1.765v7.06zM926.894 214.358H896.89h30.004zM926.894 214.358H896.89h30.004zM926.894 217.887H896.89h30.004zM926.894 210.828H896.89h30.004z"/></g><path d="M993.962 214.358h-30.004 30.004zm0 0h-30.004 30.004zm0 3.53h-30.004 30.004zm0-7.06h-30.004 30.004zm-1.765-123.546v-3.53h-1.765v3.53h1.765zm-26.474 0v-3.53h-1.765v3.53h1.765zm0-3.53l3.53-12.355 8.824-10.59 12.355-3.529m0 26.474V57.278v26.474zm-30.004 1.765v-1.765 1.765zm-31.77 0v-1.765h-1.764v1.765h1.765zm31.77 0h-31.77 31.77zm0 0h-31.77 31.77zm0 0h-31.77 31.77zm0-1.765h-31.77 31.77zM787.464 34.334v-5.295H625.089m3.53 5.295h158.845-158.845zm225.913 0v-5.295h-47.654v5.295h47.654zm67.067 0v-5.295h-47.653v5.295h47.653zm67.068 0v-5.295h-47.653v5.295h47.653zm67.068 0v-5.295h-47.654v5.295h47.654zm67.067 0v-5.295h-47.653v5.295h47.653zm68.833 0v-5.295h-47.654v5.295h47.654zm67.068 0v-5.295h-47.654v5.295h47.654zm-404.171 0h19.414-19.414zm19.414-5.295h-19.414 19.414zm47.653 5.295h19.415-19.415zm19.415-5.295h-19.415 19.415zm47.653 5.295h19.414-19.414z" stroke="#000"/><path d="M1008.081 29.039h-19.414 19.414zm47.654 5.295h19.414-19.414zm19.414-5.295h-19.414 19.414zm47.653 5.295h21.18-21.18zm21.18-5.295h-21.18 21.18zm47.653 5.295h19.414-19.414zm19.414-5.295h-19.414 19.414zm47.654 5.295h19.414-19.414zm19.414-5.295h-19.414 19.414zm-490.653 5.295h19.414-19.414zm19.414-5.295h-19.414 19.414zm-74.127 169.434V83.752h-3.53v114.721h3.53zm30.004-111.191v-3.53H743.34v3.53h19.415zm30.004 0v-3.53h-1.765v3.53h1.765zm134.135 0v-3.53H826.292v3.53h100.602zm37.064 0v-3.53h-3.53v3.53h3.53zm54.709 0v-3.528h-26.47v3.528h26.47zm-91.773 0h33.534-33.534zm33.534-3.53h-33.534 33.534zm-167.67 3.53h33.534-33.533zm33.534-3.53H792.76h33.533zM625.09 29.039v8.825h3.53v-3.53m160.61 0v-5.295h-1.765v5.295h1.765zm17.65 0v-5.295h-1.766v5.295h1.765zm-17.65-1.765h15.884-15.884zm0 0h15.884-15.884zm0 1.765h15.884-15.884zm0-5.295h15.884-15.884zm67.067 5.295v-5.295h-1.764v5.295h1.764zm17.65 0v-5.295h-1.765v5.295h1.765zm-17.65-1.765h15.885-15.885zm0 0h15.885-15.885zm0 1.765h15.885-15.885zm0-5.295h15.885-15.885zm67.068 5.295v-5.295H921.6v5.295h1.765zm17.65 0v-5.295h-1.765v5.295h1.765zM923.364 32.569h15.885-15.885zm0 0h15.885-15.885zm0 1.765h15.885-15.885zm0-5.295h15.885-15.885zm67.068 5.295v-5.295h-1.765v5.295h1.765zm17.65 0v-5.295h-1.766v5.295h1.765zm-17.65-1.765h15.884-15.884zm0 0h15.884-15.884zm0 1.765h15.884-15.884zm0-5.295h15.884-15.884zm67.067 5.295v-5.295h-1.764v5.295h1.764zm17.65 0v-5.295 5.295zm-17.65-1.765h17.65-17.65zm0 0h17.65-17.65zm0 1.765h17.65-17.65zm0-5.295h17.65-17.65zm67.068 5.295v-5.295h-1.765v5.295h1.765zm19.415 0v-5.295h-1.765v5.295h1.764zm-19.415-1.765h17.65-17.65zm0 0h17.65-17.65zm0 1.765h17.65-17.65zm0-5.295h17.65-17.65zm67.068 5.295v-5.295 5.295zm19.414 0v-5.295h-1.765v5.295h1.765zm-19.414-1.765h17.65-17.65zm0 0h17.65-17.65zm0 1.765h17.65-17.65zm0-5.295h17.65-17.65zm68.832 5.295v-5.295h-1.764v5.295h1.764zM1278.117 34.334v-5.295h-1.765v5.295h1.765zm-17.65-1.765h15.885-15.885zm0 0h15.885-15.885zm0 1.765h19.562-19.562zm0-5.295h19.562-19.562zM1011.846 290.25h269.8-269.8zm268.036-7.06H1018.67h261.21zm0 5.295v-5.295 5.295zm1.765 0h-1.765 1.765zm-271.8-21.18h8.824v-52.947h-5.295m-3.53 3.53v65.302-65.303zm8.825 65.302v-15.884 15.884zM1013.376 290.25v-1.765h-1.765v1.765h1.765zm65.303 0v-1.765h-1.765v1.765h1.765zm-65.303 0h63.538-63.538zm0 0h63.538-63.538zm0 0h63.538-63.538zm0-1.765h63.538-63.538zm0 0v-1.765h-3.53v1.765h3.53zm0-19.414v-1.765h-3.53v1.765h3.53zm-1.765 17.649v-17.65 17.65zm0 0v-17.65 17.65zm-1.765 0v-17.65 17.65zm3.53 0v-17.65 17.65zm67.068 3.53v-1.765h-1.765v1.765h1.765zm65.302 0v-1.765 1.765zm-65.302 0h65.302-65.302zm0 0h65.302-65.302zm0 0h65.302-65.302zm0-1.765h65.302-65.302zm67.067 1.765v-1.765h-1.765v1.765h1.765zm65.303 0v-1.765 1.765zm-65.303 0h65.303-65.303zm0 0h65.303-65.303zm0 0h65.303-65.303zm0-1.765h65.303-65.303zm67.068 1.765v-1.765h-1.765v1.765h1.765zm67.068 0v-1.765h-1.765v1.765h1.765zm-67.068 0h65.303-65.303zm0 0h65.303-65.303zm0 0h65.303-65.303zm0-1.765h65.303-65.303zM556.254 37.864v-8.832h-5.292v8.832h5.292zm.003 0h65.303-65.303zM35.6 352.023v8.824m8.825 0v-8.824m-8.825 8.824h8.825m0-8.824H35.6" stroke="#000"/><path d="M734.516 198.473V83.752v114.721zm-1.765 0V83.752v114.721zm10.59 0V83.752h-3.53v114.721h3.53zm-3.53 0V83.752v114.721zm0 0V83.752v114.721zm550.66-114.721v114.721h3.53V83.752h-3.53zm5.295 114.721V83.752v114.721zm-1.765 0V83.752v114.721zm10.59 0V83.752h-3.53v114.721h3.53zm-3.53 0V83.752v114.721zm0 0V83.752v114.721zm-21.181 12.355v77.657h3.53v-74.127h5.295v-3.53h-8.825zM762.755 87.282v-3.53 3.53zm28.239 0v-3.53h-1.765v3.53h1.765zm-1.765-3.53l-3.53-12.355-8.825-10.59-14.12-3.529m0 26.474V57.278v26.474zm31.77 1.765v-1.765h-1.765v1.765h1.765zm31.768 0v-1.765h-1.764v1.765h1.764zm-31.768 0h30.004-30.004zm0 0h30.004-30.004zm0 0h30.004-30.004zm0-1.765h30.004-30.004zM1279.88 71.4V29.043h3.53V67.87h5.295v3.53z" stroke="#000"/><g><path d="M415.5 286.5l209.59-68.61M235.04 417.33l180.02-130.61M231.51 410.27l180.02-130.61" stroke="#000" stroke-linecap="square"/><g stroke-linecap="square" transform="translate(100 87)"><use stroke="#979797" xlink:href="#game-of-meetio-__m"/><use stroke="#000" xlink:href="#game-of-meetio-__m"/></g><path d="M106.2 595.58l128.84-178.25M411.53 279.66l213.56-69.13M878.18 87.5v123" stroke="#000" stroke-linecap="square"/><g stroke="#000"><path d="M115.292 569.297l5.711 4.15 1.037-1.428-5.711-4.15zM133.965 543.595l5.711 4.15 1.038-1.428-5.712-4.15zM119.185 569.944l17.636-24.274-17.636 24.274zM119.185 569.944l17.636-24.274-17.636 24.274zM116.329 567.869l17.636-24.274-17.636 24.274zM122.04 572.019l17.636-24.274-17.636 24.274z"/></g><g stroke="#000"><path d="M154.292 515.297l5.711 4.15 1.037-1.428-5.711-4.15zM172.965 489.595l5.711 4.15 1.038-1.428-5.712-4.15zM158.185 515.944l17.636-24.274-17.636 24.274zM158.185 515.944l17.636-24.274-17.636 24.274zM155.329 513.869l17.636-24.274-17.636 24.274zM161.04 518.019l17.636-24.274-17.636 24.274z"/></g><g stroke="#000"><path d="M194.292 460.297l5.711 4.15 1.037-1.428-5.711-4.15zM212.965 434.595l5.711 4.15 1.038-1.428-5.712-4.15zM198.185 460.944l17.636-24.274-17.636 24.274zM198.185 460.944l17.636-24.274-17.636 24.274zM195.329 458.869l17.636-24.274-17.636 24.274zM201.04 463.019l17.636-24.274-17.636 24.274z"/></g><g stroke="#000"><path d="M254.342 393.875l4.15 5.712 1.428-1.038-4.15-5.711zM280.044 375.202l4.15 5.711 1.427-1.037-4.15-5.711zM257.845 395.694l24.273-17.636-24.273 17.636zM257.845 395.694l24.273-17.636-24.273 17.636z"/><path d="M255.77 392.838l24.274-17.636-24.274 17.636zM259.92 398.55l24.273-17.637-24.273 17.636z"/></g><g stroke="#000"><path d="M309.342 354.875l4.15 5.712 1.428-1.038-4.15-5.711zM335.044 336.202l4.15 5.711 1.427-1.037-4.15-5.711zM312.845 356.694l24.273-17.636-24.273 17.636zM312.845 356.694l24.273-17.636-24.273 17.636zM310.77 353.838l24.274-17.636-24.274 17.636zM314.92 359.55l24.273-17.637-24.273 17.636z"/></g><g stroke="#000"><path d="M362.342 315.875l4.15 5.712 1.428-1.038-4.15-5.711zM388.044 297.202l4.15 5.711 1.427-1.037-4.15-5.711zM365.845 317.694l24.273-17.636-24.273 17.636zM365.845 317.694l24.273-17.636-24.273 17.636zM363.77 314.838l24.274-17.636-24.274 17.636zM367.92 320.55l24.273-17.637-24.273 17.636z"/></g><g stroke="#000"><path d="M432.199 273.008l2.182 6.714 1.678-.545-2.182-6.714zM462.413 263.191l2.182 6.714 1.678-.545-2.181-6.714zM434.968 275.82l28.536-9.272-28.536 9.272zM434.968 275.82l28.536-9.272-28.536 9.272zM433.877 272.463l28.536-9.272-28.536 9.272zM436.06 279.177l28.535-9.272-28.536 9.272z"/></g><g stroke="#000"><path d="M495.36 252.508l2.18 6.714 1.68-.545-2.182-6.714zM525.573 242.691l2.182 6.714 1.678-.545-2.181-6.714z"/><path d="M498.129 255.32l28.535-9.272-28.535 9.272zM498.129 255.32l28.535-9.272-28.535 9.272zM497.038 251.963l28.535-9.272-28.535 9.272zM499.22 258.677l28.535-9.272-28.536 9.272z"/></g><g stroke="#000"><path d="M559.36 232.008l2.18 6.714 1.68-.545-2.182-6.714zM589.573 222.191l2.182 6.714 1.678-.545-2.181-6.714zM562.129 234.82l28.535-9.272-28.535 9.272zM562.129 234.82l28.535-9.272-28.535 9.272zM561.038 231.463l28.535-9.272-28.535 9.272z"/><path d="M563.22 238.177l28.535-9.272-28.536 9.272z"/></g></g><g><path d="M122.306 251.52h67.167v35.288h-67.167z"/><g transform="translate(131 247)"><circle fill="#428DCC" cx="25" cy="25" r="25"/><g transform="translate(4.024 3.938)"><circle fill="#FFF" cx="21" cy="21" r="21"/><path d="M20.394 29.929h-2.756l-1.53-10.639h-.051L14.5 29.93h-2.755L8.99 12.07h2.78l1.557 11.838h.05L14.91 12.07h2.398l1.53 11.838h.052l1.556-11.838h2.704L20.394 29.93zm8.444-18.114c2.654 0 4.21 1.582 4.21 4.286v1.607l-2.602.128v-1.454c0-1.429-.536-2.067-1.531-2.067-.995 0-1.53.638-1.53 1.812v9.745c0 1.174.535 1.812 1.53 1.812s1.53-.638 1.53-2.067v-1.99l2.603.128v2.143c0 2.704-1.556 4.286-4.21 4.286-2.627 0-4.158-1.582-4.158-4.286V16.1c0-2.704 1.53-4.286 4.158-4.286z" fill="#000"/></g></g><path d="M499.738 184.392h75.874v41.994l-75.874 24.4z"/><g transform="translate(513 166)"><circle fill="#428DCC" cx="25" cy="25" r="25"/><g transform="translate(4.024 4.024)"><circle fill="#FFF" cx="21" cy="21" r="21"/><path d="M12.51 27.708h-2.044v-5.88h-2.43v5.88H5.994V14.212h2.044V19.9h2.43v-5.688h2.043v13.496zm7.943-11.606h-3.701v3.817h2.988v1.89h-2.988v4.01h3.701v1.89h-5.745V14.211h5.745v1.89zm6.15 11.606l-1.619-5.706h-.945v5.706h-2.043V14.212h2.95c2.198 0 3.393 1.196 3.393 3.413v.964c0 1.427-.501 2.43-1.446 2.97l1.87 6.15h-2.16zM24.04 16.102v4.01h.83c.983 0 1.426-.52 1.426-1.658v-.694c0-1.138-.443-1.658-1.427-1.658h-.829zm11.954 0h-3.702v3.817h2.989v1.89H32.29v4.01h3.702v1.89h-5.745V14.211h5.745v1.89z" fill="#000"/></g></g><path d="M288.15 165.065h211.516v86.132L411.2 279.991 288.15 369.054z"/><g transform="translate(336.914 197.6)"><circle fill="#428DCC" cx="25" cy="25" r="25"/><circle fill="#FFF" cx="25.024" cy="25.024" r="21"/><path d="M17.136 10.017a.6.6 0 0 0-.6.506c-.115.811-1.125 7.976-1.125 9.094 0 1.149 1.64 3.035 2.381 3.825l-.581 14.175c0 1.437 1.205 2.4 3 2.4s3-.958 3-2.419l-.581-14.156c.736-.8 2.381-2.716 2.381-3.825 0-1.073-1.01-8.26-1.125-9.075a.616.616 0 0 0-.6-.525h-1.275v9.3a.3.3 0 0 1-.3.3.3.3 0 0 1-.3-.3v-9.3h-2.4v9.3a.3.3 0 0 1-.3.3.3.3 0 0 1-.3-.3v-9.3h-1.275zm15.675 0c-1.58 0-4.8 3.377-4.8 7.294 0 4.195 1.181 6.403 1.894 7.725.279.518.506.928.506 1.181 0 1.116-.197 2.297-.431 3.656-.34 1.96-.769 4.393-.769 7.744 0 1.481 1.036 2.4 2.7 2.4 1.664 0 2.7-.919 2.7-2.4V12.305c0-1.524-.607-2.288-1.8-2.288z" fill="#000" fill-rule="nonzero"/></g><path d="M192.774 286.537v-40.375h47.624v40.375z"/><g transform="translate(192 241)"><circle fill="#428DCC" cx="25" cy="25" r="25"/><circle fill="#FFF" cx="25.024" cy="25.024" r="21"/><path d="M20.233 29.84h7.216a3.61 3.61 0 0 0 3.609-3.608h1.202a4.816 4.816 0 0 0 4.812-4.811 4.816 4.816 0 0 0-4.812-4.811H17.526a.9.9 0 0 0-.902.902v8.72a3.61 3.61 0 0 0 3.609 3.608zM32.26 19.015a2.408 2.408 0 0 1 2.406 2.406 2.408 2.408 0 0 1-2.406 2.405h-1.202v-4.81h1.202zm1.793 14.434H14.831c-1.789 0-2.293-2.406-1.353-2.406h21.925c.94 0 .443 2.406-1.35 2.406z" fill="#000" fill-rule="nonzero"/></g><g transform="translate(263 275)"><circle fill="#428DCC" cx="25" cy="25" r="25"/><g transform="translate(4.024 4.024)"><circle fill="#FFF" cx="21" cy="21" r="21"/><path d="M21.019 8.99a2.871 2.871 0 0 0-2.868 2.868 2.871 2.871 0 0 0 2.868 2.868 2.871 2.871 0 0 0 2.868-2.868 2.871 2.871 0 0 0-2.868-2.868zm-1.481 6.25c-1.85 0-3.356 1.523-3.356 3.396v.97h9.589v-.97c0-1.873-1.506-3.396-3.357-3.396h-2.876zm9.657 2.91v.514h.942v-.513h-.942zm.485.429a2.414 2.414 0 0 0-2.36 1.918H9.47a.481.481 0 0 0-.48.479v1.918c0 .266.216.48.48.48h23.097a.479.479 0 0 0 .48-.48v-1.918a.48.48 0 0 0-.48-.48h-.526a2.414 2.414 0 0 0-2.361-1.917zM9.932 24.4v8.167c0 .266.216.48.482.48h21.21a.48.48 0 0 0 .482-.48V24.4H9.932z" fill="#000" fill-rule="nonzero"/></g></g><path d="M668 109c12.5 0 25-11.193 25-25s-11.193-25-25-25-25 11.193-25 25 12.5 25 25 25z" fill="#428DCC"/><g transform="translate(647.024 63.024)"><circle fill="#FFF" cx="21" cy="21" r="21"/><path d="M15.127 8.99c-3.581 0-6.063 2.229-6.42 5.629.285-.048.569-.077.868-.077a5.249 5.249 0 0 1 5.243 5.243c0 .506.09 2.16 1.234 2.16h9.87c1.145 0 1.234-1.654 1.234-2.16a5.249 5.249 0 0 1 5.243-5.243c.299 0 .581.029.868.077-.357-3.4-2.839-5.63-6.42-5.63h-11.72zm-5.552 6.785a4.013 4.013 0 0 0-4.01 4.01c0 1.865 1.313 3.47 3.084 3.894v3.393a4.13 4.13 0 0 0 2.468 3.778v1.581c0 .342.277.617.617.617h3.701c.34 0 .617-.275.617-.617v-1.234h9.87v1.234c0 .342.275.617.617.617h3.701a.615.615 0 0 0 .617-.617v-1.58a4.13 4.13 0 0 0 2.468-3.78V23.68c1.77-.422 3.084-2.029 3.084-3.894a4.013 4.013 0 0 0-4.01-4.01 4.013 4.013 0 0 0-4.01 4.01c0 .566-.118 3.393-2.467 3.393h-9.87c-2.35 0-2.468-2.827-2.468-3.393a4.013 4.013 0 0 0-4.01-4.01z" fill="#000" fill-rule="nonzero"/></g><g><g transform="translate(1230 116)"><circle fill="#428DCC" cx="25" cy="25" r="25"/><circle fill="#FFF" cx="25.024" cy="25.024" r="21"/><path d="M20.233 29.84h7.216a3.61 3.61 0 0 0 3.609-3.608h1.202a4.816 4.816 0 0 0 4.812-4.811 4.816 4.816 0 0 0-4.812-4.811H17.526a.9.9 0 0 0-.902.902v8.72a3.61 3.61 0 0 0 3.609 3.608zM32.26 19.015a2.408 2.408 0 0 1 2.406 2.406 2.408 2.408 0 0 1-2.406 2.405h-1.202v-4.81h1.202zm1.793 14.434H14.831c-1.789 0-2.293-2.406-1.353-2.406h21.925c.94 0 .443 2.406-1.35 2.406z" fill="#000" fill-rule="nonzero"/></g></g></g></g></svg>
